:SAMPLES-PER-SECOND 30
:FULLY-SPECIFIED
:DEGREES
256
root  34.98358539 36.48864266 -14.81934795 10.65817547 8.877133369 3.909299612
lowerback  -8.188810349 3.404379845 3.760379791
upperback  -4.229370117 3.942739964 -4.41782999
thorax  0.7635189891 1.73032999 -6.365650177
lowerneck  -16.73399925 4.820010185 7.236579895
upperneck  16.50790024 3.878409863 3.08020997
head  7.984459877 2.517479897 0.2962949872
lclavicle  0 -4.497500157e-015 -2.743230041e-014
lhumerus  -43.03549957 24.4864006 69.75189972
lradius  -0.1945767701 -6.507048965e-006 26.14819717
lwrist  4.824992743e-007 -3.790274832e-007 -31.60880089
lhand  -0 -36.95510101 -10.36509991
lfingers  90 7.125020027 -90
lthumb  94.77577038 -25.20481961 101.0996093
rclavicle  0 -4.497500157e-015 -2.743230041e-014
rhumerus  63.15840149 12.93889999 -56.31539917
rradius  -5.16745672e-007 2.214343908e-008 43.84339905
rwrist  -3.062178075e-005 0.01194404531 -160.6909943
rhand  -1.768241542e-031 3.154350042 -5.80095005
rfingers  -90 -7.125020027 -90
rthumb  -84.50091829 -9.965484567 -60.9121963
rfemur  -13.53410816 11.96287441 14.50684452
rtibia  -2.259373426 2.225740194 23.244524
rfoot  -2.145283222 -15.54801559 -43.49883652
rtoes  3.773962694 19.65503736 -101.0955726
lfemur  -11.64708328 -21.73733711 -18.38561821
ltibia  2.86493969 1.904358506 15.5032692
lfoot  0.8852512836 -29.26265717 31.4438839
ltoes  -8.668102293 -18.09370584 -116.1452316
257
root  34.98309278 36.48917431 -14.82013492 10.65731907 8.878684998 3.887333632
lowerback  -8.204549789 3.349730015 3.66008997
upperback  -4.232890129 3.875119925 -4.375750065
thorax  0.7501220107 1.697059989 -6.27011013
lowerneck  -16.77210045 4.866209984 7.363939762
upperneck  16.64489937 3.936809778 2.900330067
head  8.044739723 2.53956008 0.2265461087
lclavicle  0 -4.497500157e-015 -2.743230041e-014
lhumerus  -43.09640121 24.55310059 69.76069641
lradius  -0.1961312592 -6.507048965e-006 26.18039894
lwrist  4.824992743e-007 -3.790274832e-007 -31.56559944
lhand  -4.4203722e-031 -36.98149872 -10.36349964
lfingers  90 7.125020027 -90
lthumb  94.78764474 -25.20230088 101.1276582
rclavicle  0 -4.497500157e-015 -2.743230041e-014
rhumerus  62.74440002 13.01790047 -56.0284996
rradius  -5.16745672e-007 2.214343908e-008 44.53850174
rwrist  -3.062178075e-005 0.01194404531 -161.602005
rhand  -1.768210677e-031 3.136149883 -5.818649769
rfingers  -90 -7.125020027 -90
rthumb  -84.51415483 -9.949050752 -60.93144592
rfemur  -13.53892231 12.01263905 14.52729893
rtibia  -2.252012491 2.259737968 23.2382164
rfoot  -2.132638931 -15.49965858 -43.50996399
rtoes  3.792956318 19.65152032 -101.1520462
lfemur  -11.66359329 -21.73611641 -18.34929276
ltibia  2.845870495 1.914141536 15.52091503
lfoot  0.8831679225 -29.28325272 31.45922089
ltoes  -8.645420154 -18.10427197 -116.0722188
258
root  34.98160295 36.48898207 -14.82105255 10.64717293 8.8770895 3.884458065
lowerback  -8.222929955 3.31456995 3.618599892
upperback  -4.241819859 3.828670025 -4.362380028
thorax  0.7412139773 1.673130035 -6.236489773
lowerneck  -16.75489998 4.867790222 7.390220165
upperneck  16.68350029 3.935210228 2.878350019
head  8.055850029 2.5385499 0.2149811089
lclavicle  0 -4.497500157e-015 -2.743230041e-014
lhumerus  -43.1413002 24.5848999 69.74130249
lradius  -0.1976868659 -6.507048965e-006 26.21570015
lwrist  4.824992743e-007 -3.790274832e-007 -31.55610085
lhand  -0 -37.03469849 -10.45030022
lfingers  90 7.125020027 -90
lthumb  94.83085653 -25.28561151 101.1923245
rclavicle  0 -4.497500157e-015 -2.743230041e-014
rhumerus  62.28990173 13.09640026 -55.6507988
rradius  -5.16745672e-007 2.214343908e-008 45.33840179
rwrist  -3.062178075e-005 0.01194404531 -162.4250031
rhand  -1.768362706e-031 3.22480011 -5.970089912
rfingers  -90 -7.125020027 -90
rthumb  -84.56717232 -9.821213906 -60.85758115
rfemur  -13.53463554 12.04039383 14.53192139
rtibia  -2.24847436 2.262866259 23.24929619
rfoot  -2.147746801 -15.51762867 -43.54155731
rtoes  3.798479056 19.65049422 -101.1684687
lfemur  -11.61300945 -21.73997879 -18.35921097
ltibia  2.868274927 1.923731446 15.45619392
lfoot  0.8851514459 -29.26872253 31.50198364
ltoes  -8.65605228 -18.09932348 -116.106438
259
root  34.98039846 36.48921336 -14.82212037 10.63706112 8.864570618 3.866435766
lowerback  -8.23484993 3.318720102 3.651989937
upperback  -4.247539997 3.82942009 -4.40873003
thorax  0.7470520139 1.671630025 -6.304349899
lowerneck  -16.71839905 4.815879822 7.361680031
upperneck  16.66889954 3.855320454 2.959749937
head  8.041020393 2.504780054 0.2355489582
lclavicle  0 -4.497500157e-015 -2.743230041e-014
lhumerus  -43.12630081 24.51740074 69.73220062
lradius  -0.1992435604 -6.507048965e-006 26.22930145
lwrist  4.824992743e-007 -3.790274832e-007 -31.53809929
lhand  -4.422273508e-031 -37.0141983 -10.29049969
lfingers  90 7.125020027 -90
lthumb  94.78717414 -25.12951046 101.1559589
rclavicle  0 -4.497500157e-015 -2.743230041e-014
rhumerus  61.76110077 13.19739914 -54.97779846
rradius  -5.16745672e-007 2.214343908e-008 46.30830002
rwrist  -3.062178075e-005 0.01194404531 -163.0780029
rhand  -1.768379041e-031 3.234179974 -6.052840233
rfingers  -90 -7.125020027 -90
rthumb  -84.60575523 -9.749444963 -60.85531019
rfemur  -13.51979446 12.06173229 14.54534149
rtibia  -2.238652468 2.284000874 23.22522736
rfoot  -2.137851715 -15.48598099 -43.5565834
rtoes  3.821813222 19.64614169 -101.2378649
lfemur  -11.63255692 -21.75358963 -18.326231
ltibia  2.842873335 1.907475829 15.49169731
lfoot  0.8744843006 -29.24328232 31.51134491
ltoes  -8.651916086 -18.10124949 -116.0931247
260
root  34.98005003 36.48979007 -14.82316415 10.61954212 8.847547531 3.830439091
lowerback  -8.260990143 3.279750109 3.565229893
upperback  -4.255620003 3.780339956 -4.391119957
thorax  0.739948988 1.646729946 -6.24022007
lowerneck  -16.66950035 4.793960094 7.278369904
upperneck  16.66640091 3.833229542 3.039010048
head  8.027640343 2.495539904 0.2710120678
lclavicle  0 -4.497500157e-015 -2.743230041e-014
lhumerus  -43.17490005 24.5583992 69.73899841
lradius  -0.2008035481 -6.507048965e-006 26.24469948
lwrist  4.824992743e-007 -3.790274832e-007 -31.5177002
lhand  -4.421005776e-031 -36.99240112 -10.06099987
lfingers  90 7.125020027 -90
lthumb  94.72826373 -24.90519695 101.1119914
rclavicle  0 -4.497500157e-015 -2.743230041e-014
rhumerus  61.2267952 13.32380009 -54.41289902
rradius  -5.16745672e-007 2.214343908e-008 47.3064003
rwrist  -3.062178075e-005 0.01194404531 -164.0079956
rhand  -0 3.238320112 -5.864729881
rfingers  -90 -7.125020027 -90
rthumb  -84.51176732 -9.913856989 -60.83533816
rfemur  -13.47330761 12.04528713 14.57085037
rtibia  -2.211436272 2.298917532 23.15039253
rfoot  -2.097594261 -15.47018719 -43.52921295
rtoes  3.798942185 19.65040811 -101.169846
lfemur  -11.67933273 -21.72660065 -18.26633644
ltibia  2.788480997 1.899543047 15.5834074
lfoot  0.8580747247 -29.26842499 31.47795868
ltoes  -8.65165721 -18.10136999 -116.0922915
